<?xml version="1.0" encoding="UTF-8" standalone="no"?>
<!DOCTYPE svg PUBLIC "-//W3C//DTD SVG 1.1//EN" "http://www.w3.org/Graphics/SVG/1.1/DTD/svg11.dtd">
<svg width="100%" height="100%" viewBox="0 0 24 24" version="1.1" xmlns="http://www.w3.org/2000/svg" xmlns:xlink="http://www.w3.org/1999/xlink" xml:space="preserve" xmlns:serif="http://www.serif.com/" style="fill-rule:evenodd;clip-rule:evenodd;stroke-linejoin:round;stroke-miterlimit:2;">
    <g transform="matrix(39.4741,0,0,39.4741,-0.47059,20.7506)">
        <path d="M0.298,-0.109C0.276,-0.113 0.258,-0.123 0.245,-0.141C0.232,-0.158 0.225,-0.178 0.225,-0.2C0.225,-0.226 0.234,-0.247 0.252,-0.265C0.27,-0.283 0.292,-0.292 0.317,-0.292C0.344,-0.292 0.366,-0.283 0.385,-0.264C0.404,-0.245 0.413,-0.222 0.413,-0.194C0.413,-0.135 0.397,-0.086 0.365,-0.049C0.334,-0.011 0.293,0.008 0.242,0.008C0.192,0.008 0.149,-0.013 0.115,-0.055C0.08,-0.097 0.062,-0.149 0.062,-0.212C0.062,-0.281 0.087,-0.338 0.136,-0.384C0.185,-0.429 0.245,-0.451 0.316,-0.451C0.387,-0.451 0.447,-0.429 0.496,-0.384C0.545,-0.338 0.57,-0.281 0.57,-0.211C0.57,-0.14 0.554,-0.069 0.523,-0L0.422,-0L0.422,-0.005C0.44,-0.031 0.455,-0.062 0.466,-0.1C0.477,-0.138 0.483,-0.175 0.483,-0.211C0.483,-0.259 0.467,-0.298 0.436,-0.327C0.405,-0.356 0.365,-0.371 0.316,-0.371C0.267,-0.371 0.227,-0.356 0.196,-0.327C0.164,-0.297 0.148,-0.259 0.148,-0.212C0.148,-0.173 0.157,-0.139 0.176,-0.112C0.194,-0.085 0.216,-0.072 0.242,-0.072C0.272,-0.072 0.29,-0.084 0.298,-0.109ZM0.319,-0.163C0.329,-0.163 0.338,-0.167 0.345,-0.174C0.352,-0.181 0.356,-0.189 0.356,-0.199C0.356,-0.21 0.352,-0.219 0.345,-0.226C0.338,-0.233 0.329,-0.237 0.319,-0.237C0.309,-0.237 0.3,-0.233 0.293,-0.226C0.286,-0.219 0.282,-0.21 0.282,-0.199C0.282,-0.189 0.286,-0.181 0.293,-0.174C0.3,-0.167 0.309,-0.163 0.319,-0.163Z" style="fill-rule:nonzero;"/>
    </g>
</svg>
