<svg viewBox="0 0 24 24" xmlns="http://www.w3.org/2000/svg" xml:space="preserve" style="fill-rule:evenodd;clip-rule:evenodd;stroke-linejoin:round;stroke-miterlimit:2"><path d="M.298-.109a.08.08 0 0 1-.053-.032.096.096 0 0 1-.02-.059c0-.026.009-.047.027-.065a.09.09 0 0 1 .065-.027c.027 0 .049.009.068.028a.094.094 0 0 1 .028.07.215.215 0 0 1-.048.145.15.15 0 0 1-.123.057.158.158 0 0 1-.127-.063.237.237 0 0 1-.053-.157c0-.069.025-.126.074-.172a.256.256 0 0 1 .18-.067c.071 0 .131.022.18.067a.227.227 0 0 1 .074.173A.513.513 0 0 1 .523 0H.422v-.005a.4.4 0 0 0 .061-.206.152.152 0 0 0-.047-.116.169.169 0 0 0-.12-.044.169.169 0 0 0-.12.044.15.15 0 0 0-.048.115.17.17 0 0 0 .028.1c.018.027.04.04.066.04.03 0 .048-.012.056-.037zm.021-.054c.01 0 .019-.004.026-.011a.034.034 0 0 0 .011-.025.037.037 0 0 0-.011-.027.036.036 0 0 0-.052 0 .037.037 0 0 0-.011.027c0 .01.004.018.011.025a.036.036 0 0 0 .026.011z" style="fill-rule:nonzero" transform="translate(-.47 20.75) scale(39.4741)"/></svg>