<svg viewBox="0 0 24 24" xmlns="http://www.w3.org/2000/svg" xml:space="preserve" style="fill-rule:evenodd;clip-rule:evenodd;stroke-linejoin:round;stroke-miterlimit:2"><path d="M.046-.434c0-.01.001-.019.005-.029a.072.072 0 0 1 .014-.024.09.09 0 0 1 .027-.018.104.104 0 0 1 .038-.006c.015 0 .029.002.043.008a.32.32 0 0 1 .076.05l.039.031a.364.364 0 0 0 .102.054.403.403 0 0 0-.053-.101L.305-.508C.294-.52.285-.533.276-.545a.147.147 0 0 1-.029-.083c0-.015.002-.028.007-.039a.078.078 0 0 1 .017-.026.087.087 0 0 1 .079-.015.136.136 0 0 1 .021.01.075.075 0 0 1 .016.015l.012.016h.002l.012-.016A.08.08 0 0 1 .43-.698a.077.077 0 0 1 .047-.014c.009 0 .019.002.028.005a.064.064 0 0 1 .025.015.062.062 0 0 1 .017.026.118.118 0 0 1-.001.081.282.282 0 0 1-.021.038l-.029.038a.467.467 0 0 0-.085.141.304.304 0 0 0 .101-.054l.04-.031a.312.312 0 0 1 .075-.05.103.103 0 0 1 .043-.008c.015 0 .028.002.039.006a.1.1 0 0 1 .026.018.06.06 0 0 1 .015.024.097.097 0 0 1 0 .055.068.068 0 0 1-.01.021.088.088 0 0 1-.031.028v.003a.088.088 0 0 1 .031.028.068.068 0 0 1 .01.021.092.092 0 0 1 0 .054.06.06 0 0 1-.015.024.071.071 0 0 1-.026.018.107.107 0 0 1-.039.006.108.108 0 0 1-.044-.008.198.198 0 0 1-.038-.02.337.337 0 0 1-.037-.029l-.04-.032a.318.318 0 0 0-.099-.053c.004.021.008.04.01.059a.535.535 0 0 1-.005.142.297.297 0 0 1-.025.078.162.162 0 0 1-.044.058.096.096 0 0 1-.064.022.19.19 0 0 1-.035-.003A1.036 1.036 0 0 1 .22 0v-.037a.14.14 0 0 0 .067-.016.176.176 0 0 0 .055-.048.27.27 0 0 0 .037-.08.397.397 0 0 0 .011-.166.285.285 0 0 0-.101.053.416.416 0 0 0-.039.032.45.45 0 0 1-.037.028.147.147 0 0 1-.083.029.114.114 0 0 1-.039-.006.071.071 0 0 1-.026-.018.072.072 0 0 1-.014-.024.071.071 0 0 1-.005-.029c0-.009.001-.018.004-.025a.068.068 0 0 1 .01-.021.088.088 0 0 1 .031-.028v-.003a.088.088 0 0 1-.017-.012L.06-.387a.068.068 0 0 1-.01-.021.071.071 0 0 1-.004-.026z" style="fill-rule:nonzero" transform="translate(.972 21.642) scale(27.5587)"/></svg>