<svg viewBox="0 0 24 24" xmlns="http://www.w3.org/2000/svg" xml:space="preserve" style="fill-rule:evenodd;clip-rule:evenodd;stroke-linejoin:round;stroke-miterlimit:2"><path d="M.154-.637.145-.644a.26.26 0 0 1 .126-.032c.034 0 .066.006.099.016a.33.33 0 0 1 .196.181.279.279 0 0 1 .023.107l-.001.026a.221.221 0 0 1-.005.025L.575-.327a.18.18 0 0 0-.011-.058.375.375 0 0 0-.077-.125.375.375 0 0 0-.058-.055L.044.026H0l.398-.612a.407.407 0 0 0-.183-.062.17.17 0 0 0-.061.011z" style="fill-rule:nonzero" transform="translate(3.608 21.254) scale(28.5008)"/></svg>