<?xml version="1.0" encoding="UTF-8" standalone="no"?>
<!DOCTYPE svg PUBLIC "-//W3C//DTD SVG 1.1//EN" "http://www.w3.org/Graphics/SVG/1.1/DTD/svg11.dtd">
<svg width="100%" height="100%" viewBox="0 0 24 24" version="1.1" xmlns="http://www.w3.org/2000/svg" xmlns:xlink="http://www.w3.org/1999/xlink" xml:space="preserve" xmlns:serif="http://www.serif.com/" style="fill-rule:evenodd;clip-rule:evenodd;stroke-linejoin:round;stroke-miterlimit:2;">
    <g transform="matrix(28.5008,0,0,28.5008,3.6084,21.2544)">
        <path d="M0.154,-0.637L0.145,-0.644C0.166,-0.655 0.187,-0.664 0.207,-0.668C0.227,-0.673 0.248,-0.676 0.271,-0.676C0.305,-0.676 0.337,-0.67 0.37,-0.66C0.402,-0.649 0.432,-0.633 0.459,-0.613C0.508,-0.577 0.544,-0.533 0.566,-0.479C0.581,-0.443 0.589,-0.407 0.589,-0.372C0.589,-0.364 0.588,-0.355 0.588,-0.346C0.587,-0.338 0.585,-0.329 0.583,-0.321L0.575,-0.327C0.575,-0.345 0.571,-0.365 0.564,-0.385C0.556,-0.406 0.546,-0.428 0.533,-0.449C0.52,-0.47 0.505,-0.49 0.487,-0.51C0.469,-0.531 0.45,-0.549 0.429,-0.565L0.044,0.026L0,0.026L0.398,-0.586C0.387,-0.593 0.375,-0.6 0.361,-0.607C0.347,-0.614 0.332,-0.621 0.316,-0.627C0.3,-0.633 0.284,-0.638 0.267,-0.642C0.25,-0.646 0.233,-0.648 0.215,-0.648C0.205,-0.648 0.195,-0.647 0.184,-0.645C0.174,-0.643 0.164,-0.641 0.154,-0.637Z" style="fill-rule:nonzero;"/>
    </g>
</svg>
