<svg viewBox="0 0 24 24" xmlns="http://www.w3.org/2000/svg" xml:space="preserve" style="fill-rule:evenodd;clip-rule:evenodd;stroke-linejoin:round;stroke-miterlimit:2"><path d="M.633-.504a.434.434 0 0 0 .226.137v.015a.502.502 0 0 0-.246.157A.425.425 0 0 0 .508 0H.492a.469.469 0 0 0-.125-.215.477.477 0 0 0-.226-.137v-.015a.412.412 0 0 0 .226-.137.422.422 0 0 0 .125-.215h.016c.018.076.06.147.125.215zM.5-.668a.66.66 0 0 1-.078.23.695.695 0 0 1-.231.079c.099.02.176.046.231.078.034.057.06.134.078.23a.888.888 0 0 1 .078-.23.816.816 0 0 1 .231-.078.73.73 0 0 1-.231-.079.814.814 0 0 1-.078-.23z" style="fill-rule:nonzero" transform="translate(-1.929 22.011) scale(27.8577)"/></svg>