<?xml version="1.0" encoding="UTF-8" standalone="no"?>
<!DOCTYPE svg PUBLIC "-//W3C//DTD SVG 1.1//EN" "http://www.w3.org/Graphics/SVG/1.1/DTD/svg11.dtd">
<svg width="100%" height="100%" viewBox="0 0 24 24" version="1.1" xmlns="http://www.w3.org/2000/svg" xmlns:xlink="http://www.w3.org/1999/xlink" xml:space="preserve" xmlns:serif="http://www.serif.com/" style="fill-rule:evenodd;clip-rule:evenodd;stroke-linejoin:round;stroke-miterlimit:2;">
    <g transform="matrix(27.8577,0,0,27.8577,-1.92884,22.0114)">
        <path d="M0.633,-0.504C0.701,-0.431 0.776,-0.385 0.859,-0.367L0.859,-0.352C0.768,-0.328 0.686,-0.276 0.613,-0.195C0.559,-0.135 0.523,-0.07 0.508,-0L0.492,-0C0.474,-0.076 0.432,-0.147 0.367,-0.215C0.299,-0.285 0.224,-0.331 0.141,-0.352L0.141,-0.367C0.227,-0.385 0.302,-0.431 0.367,-0.504C0.435,-0.572 0.477,-0.643 0.492,-0.719L0.508,-0.719C0.526,-0.643 0.568,-0.572 0.633,-0.504ZM0.5,-0.668C0.482,-0.569 0.456,-0.492 0.422,-0.438C0.367,-0.404 0.29,-0.378 0.191,-0.359C0.29,-0.339 0.367,-0.313 0.422,-0.281C0.456,-0.224 0.482,-0.147 0.5,-0.051C0.521,-0.147 0.547,-0.224 0.578,-0.281C0.635,-0.313 0.712,-0.339 0.809,-0.359C0.712,-0.378 0.635,-0.404 0.578,-0.438C0.547,-0.492 0.521,-0.569 0.5,-0.668Z" style="fill-rule:nonzero;"/>
    </g>
</svg>
